<svg xmlns="http://www.w3.org/2000/svg" xmlns:xlink="http://www.w3.org/1999/xlink" width="1140" height="667.88"><rect width="1140" height="667.88" rx="5" ry="5" class="a"/><svg y="0%" x="0%"><circle cx="20" cy="20" r="6" fill="#ff5f58"/><circle cx="40" cy="20" r="6" fill="#ffbd2e"/><circle cx="60" cy="20" r="6" fill="#18c132"/></svg><svg height="607.88" viewBox="0 0 110 60.788" width="1100" x="15" xmlns="http://www.w3.org/2000/svg" xmlns:xlink="http://www.w3.org/1999/xlink" y="50"><style>@keyframes i{0%{transform:translateX(0)}.7%{transform:translateX(-1210px)}7%{transform:translateX(-1320px)}15.5%{transform:translateX(-1430px)}26.8%{transform:translateX(-1540px)}27%{transform:translateX(-1870px)}27.1%{transform:translateX(-2090px)}27.2%{transform:translateX(-2310px)}27.3%{transform:translateX(-2530px)}27.4%{transform:translateX(-2750px)}27.5%{transform:translateX(-2970px)}27.6%{transform:translateX(-3190px)}38.9%{transform:translateX(-3300px)}39%{transform:translateX(-3520px)}50.3%{transform:translateX(-3630px)}51.2%{transform:translateX(-3740px)}62.5%{transform:translateX(-3850px)}62.7%{transform:translateX(-4070px)}73.1%{transform:translateX(-4180px)}73.6%{transform:translateX(-4290px)}84.9%{transform:translateX(-4400px)}86.6%{transform:translateX(-4510px)}91.1%{transform:translateX(-4620px)}92%{transform:translateX(-4840px)}to{transform:translateX(-5060px)}}.a{fill:#282d35}.f{fill:#b9c0cb;white-space:pre}</style><g font-family="Monaco,Consolas,Menlo,'Bitstream Vera Sans Mono','Powerline Symbols',monospace" font-size="1.67"><defs><symbol id="1"><text y="1.67" class="f">ww&gt;</text></symbol><symbol id="2"><text y="1.67" class="f">ww&gt;export</text><text x="10.02" y="1.67" class="f">WW_HELPER_BIN=&apos;/Users/liuwei/.codex/worktrees/4dfd/ww/.tools/bin/ww-helper-demo&apos;</text></symbol><symbol id="3"><text y="1.67" class="f">ww&gt;source</text><text x="10.02" y="1.67" class="f">&apos;/Users/liuwei/.codex/worktrees/4dfd/ww/shell/ww.sh&apos;</text></symbol><symbol id="4"><text y="1.67" class="f">ww&gt;cd</text><text x="6.012" y="1.67" class="f">&apos;/tmp/ww-demo-site/repo&apos;</text></symbol><symbol id="5"><text y="1.67" class="f">ww&gt;ww</text></symbol><symbol id="6"><text y="1.67" class="f">Select</text><text x="7.014" y="1.67" class="f">a</text><text x="9.018" y="1.67" class="f">worktree&gt;</text></symbol><symbol id="7"><text y="1.67" class="f">&gt;</text></symbol><symbol id="8"><text x="2.004" y="1.67" class="f">3</text><text x="5.01" y="1.67" class="f">hotfix</text><text x="12.024" y="1.67" class="f">/private/tmp/ww-demo-site/repo/.worktrees/hotfix</text></symbol><symbol id="9"><text y="1.67" class="f">Select</text><text x="7.014" y="1.67" class="f">a</text><text x="9.018" y="1.67" class="f">worktree&gt;</text><text x="19.038" y="1.67" class="f">f</text></symbol><symbol id="10"><text y="1.67" class="f">&gt;</text><text x="2.004" y="1.67" class="f">2</text><text x="5.01" y="1.67" class="f">feat-a</text><text x="12.024" y="1.67" class="f">/private/tmp/ww-demo-site/repo/.worktrees/feat-a</text></symbol><symbol id="11"><text y="1.67" class="f">Select</text><text x="7.014" y="1.67" class="f">a</text><text x="9.018" y="1.67" class="f">worktree&gt;</text><text x="19.038" y="1.67" class="f">fe</text></symbol><symbol id="12"><text y="1.67" class="f">Select</text><text x="7.014" y="1.67" class="f">a</text><text x="9.018" y="1.67" class="f">worktree&gt;</text><text x="19.038" y="1.67" class="f">fea</text></symbol><symbol id="13"><text y="1.67" class="f">Select</text><text x="7.014" y="1.67" class="f">a</text><text x="9.018" y="1.67" class="f">worktree&gt;</text><text x="19.038" y="1.67" class="f">feat</text></symbol><symbol id="14"><text y="1.67" class="f">Select</text><text x="7.014" y="1.67" class="f">a</text><text x="9.018" y="1.67" class="f">worktree&gt;</text><text x="19.038" y="1.67" class="f">feat-</text></symbol><symbol id="15"><text y="1.67" class="f">Select</text><text x="7.014" y="1.67" class="f">a</text><text x="9.018" y="1.67" class="f">worktree&gt;</text><text x="19.038" y="1.67" class="f">feat-a</text></symbol><symbol id="16"><text y="1.67" class="f">ww&gt;git</text><text x="7.014" y="1.67" class="f">branch</text><text x="14.028" y="1.67" class="f">--show-current</text></symbol><symbol id="17"><text y="1.67" class="f">feat-a</text></symbol><symbol id="18"><text y="1.67" class="f">ww&gt;ww</text><text x="6.012" y="1.67" class="f">new</text><text x="10.02" y="1.67" class="f">feat-demo</text></symbol><symbol id="19"><text y="1.67" class="f">feat-demo</text></symbol><symbol id="20"><text y="1.67" class="f">ww&gt;ww</text><text x="6.012" y="1.67" class="f">main</text></symbol><symbol id="21"><text y="1.67" class="f">ww&gt;ww</text><text x="6.012" y="1.67" class="f">rm</text><text x="9.018" y="1.67" class="f">feat-demo</text></symbol><symbol id="22"><text y="1.67" class="f">Selected:</text><text x="10.02" y="1.67" class="f">feat-demo</text></symbol><symbol id="23"><text y="1.67" class="f">✅</text><text x="2.004" y="1.67" class="f">Safe</text><text x="7.014" y="1.67" class="f">to</text><text x="10.02" y="1.67" class="f">delete</text></symbol><symbol id="24"><text y="1.67" class="f">Will</text><text x="5.01" y="1.67" class="f">remove:</text></symbol><symbol id="25"><text y="1.67" class="f">-</text><text x="2.004" y="1.67" class="f">worktree</text><text x="11.022" y="1.67" class="f">directory</text><text x="21.042" y="1.67" class="f">/private/tmp/ww-demo-site/repo/.worktrees/feat-demo</text></symbol><symbol id="26"><text y="1.67" class="f">-</text><text x="2.004" y="1.67" class="f">branch</text><text x="9.018" y="1.67" class="f">feat-demo</text><text x="19.038" y="1.67" class="f">(already</text><text x="28.056" y="1.67" class="f">merged</text><text x="35.07" y="1.67" class="f">into</text><text x="40.08" y="1.67" class="f">main)</text></symbol><symbol id="27"><text y="1.67" class="f">Will</text><text x="5.01" y="1.67" class="f">not</text><text x="9.018" y="1.67" class="f">remove:</text></symbol><symbol id="28"><text y="1.67" class="f">-</text><text x="2.004" y="1.67" class="f">commits</text><text x="10.02" y="1.67" class="f">already</text><text x="18.036" y="1.67" class="f">merged</text><text x="25.05" y="1.67" class="f">into</text><text x="30.06" y="1.67" class="f">main</text></symbol><symbol id="29"><text y="1.67" class="f">Delete</text><text x="7.014" y="1.67" class="f">this</text><text x="12.024" y="1.67" class="f">worktree?</text><text x="22.044" y="1.67" class="f">[y/N]:</text><text x="29.058" y="1.67" class="f">y</text></symbol><symbol id="30"><text y="1.67" class="f">removed</text><text x="8.016" y="1.67" class="f">worktree</text><text x="17.034" y="1.67" class="f">/private/tmp/ww-demo-site/repo/.worktrees/feat-demo</text></symbol><symbol id="31"><text y="1.67" class="f">deleted</text><text x="8.016" y="1.67" class="f">branch</text><text x="15.03" y="1.67" class="f">feat-demo</text></symbol><symbol id="32"><text y="1.67" class="f">ww&gt;exit</text></symbol><symbol id="a"><path fill="transparent" d="M0 0h110v28H0z"/></symbol><symbol id="b"><path fill="#6f7683" d="M0 0h1.102v2.171H0z"/></symbol></defs><path class="a" d="M0 0h110v60.788H0z"/><g style="animation-duration:9.713514000000002s;animation-iteration-count:infinite;animation-name:i;animation-timing-function:steps(1,end)"><svg width="5170"><svg><use xlink:href="#a"/><use xlink:href="#b" x="-.004"/></svg><svg x="110"><use xlink:href="#a"/><use xlink:href="#b" x="2.996"/><use xlink:href="#1"/></svg><svg x="220"><use xlink:href="#a"/><use xlink:href="#b" x="49.996"/><text y="1.67" class="f">ww&gt;export</text><text x="10.02" y="1.67" class="f">WW_HELPER_BIN=&apos;/Users/liuwei/.codex/work</text></svg><svg x="330"><use xlink:href="#a"/><use xlink:href="#b" x="-.004" y="2.146"/><use xlink:href="#2"/></svg><svg x="440"><use xlink:href="#a"/><use xlink:href="#b" x="2.996" y="2.146"/><use xlink:href="#2"/><use xlink:href="#1" y="2.171"/></svg><svg x="550"><use xlink:href="#a"/><use xlink:href="#b" x="14.996" y="2.146"/><use xlink:href="#2"/><text y="3.841" class="f">ww&gt;source</text><text x="10.02" y="3.841" class="f">&apos;/Use</text></svg><svg x="660"><use xlink:href="#a"/><use xlink:href="#b" x="34.996" y="2.146"/><use xlink:href="#2"/><text y="3.841" class="f">ww&gt;source</text><text x="10.02" y="3.841" class="f">&apos;/Users/liuwei/.codex/wor</text></svg><svg x="770"><use xlink:href="#a"/><use xlink:href="#b" x="50.996" y="2.146"/><use xlink:href="#2"/><text y="3.841" class="f">ww&gt;source</text><text x="10.02" y="3.841" class="f">&apos;/Users/liuwei/.codex/worktrees/4dfd/ww/s</text></svg><svg x="880"><use xlink:href="#a"/><use xlink:href="#b" x="-.004" y="4.317"/><use xlink:href="#2"/><use xlink:href="#3" y="2.171"/></svg><svg x="990"><use xlink:href="#a"/><use xlink:href="#b" x="2.996" y="4.317"/><use xlink:href="#2"/><use xlink:href="#3" y="2.171"/><use xlink:href="#1" y="4.342"/></svg><svg x="1100"><use xlink:href="#a"/><use xlink:href="#b" x="-.004" y="6.488"/><use xlink:href="#2"/><use xlink:href="#3" y="2.171"/><use xlink:href="#4" y="4.342"/></svg><svg x="1210"><use xlink:href="#a"/><use xlink:href="#b" x="2.996" y="6.488"/><use xlink:href="#2"/><use xlink:href="#3" y="2.171"/><use xlink:href="#4" y="4.342"/><use xlink:href="#1" y="6.513"/></svg><svg x="1320"><use xlink:href="#a"/><use xlink:href="#b" x="-.004" y="8.659"/><use xlink:href="#2"/><use xlink:href="#3" y="2.171"/><use xlink:href="#4" y="4.342"/><use xlink:href="#5" y="6.513"/></svg><svg x="1430"><use xlink:href="#a"/><use xlink:href="#6"/><use xlink:href="#7" y="4.342"/></svg><svg x="1540"><use xlink:href="#a"/><use xlink:href="#6"/><text y="6.012" class="f">&gt;</text><text x="2.004" y="6.012" class="f">1</text><text x="5.01" y="6.012" class="f">ACTIVE</text><text x="12.024" y="6.012" class="f">main</text><text x="21.042" y="6.012" class="f">/private/tmp/ww-demo-site/repo</text><text x="2.004" y="8.183" class="f">2</text><text x="5.01" y="8.183" class="f">feat-a</text><text x="12.024" y="8.183" class="f">/private/tmp/ww-demo-site/repo/.worktrees/feat-a</text><use xlink:href="#8" y="8.684"/></svg><svg x="1650"><use xlink:href="#a"/><use xlink:href="#9"/><use xlink:href="#7" y="4.342"/></svg><svg x="1760"><use xlink:href="#a"/><use xlink:href="#9"/><use xlink:href="#10" y="4.342"/></svg><svg x="1870"><use xlink:href="#a"/><use xlink:href="#9"/><use xlink:href="#10" y="4.342"/><use xlink:href="#8" y="6.513"/></svg><svg x="1980"><use xlink:href="#a"/><use xlink:href="#11"/><use xlink:href="#7" y="4.342"/></svg><svg x="2090"><use xlink:href="#a"/><use xlink:href="#11"/><use xlink:href="#10" y="4.342"/></svg><svg x="2200"><use xlink:href="#a"/><use xlink:href="#12"/><use xlink:href="#7" y="4.342"/></svg><svg x="2310"><use xlink:href="#a"/><use xlink:href="#12"/><use xlink:href="#10" y="4.342"/></svg><svg x="2420"><use xlink:href="#a"/><use xlink:href="#13"/><use xlink:href="#7" y="4.342"/></svg><svg x="2530"><use xlink:href="#a"/><use xlink:href="#13"/><use xlink:href="#10" y="4.342"/></svg><svg x="2640"><use xlink:href="#a"/><use xlink:href="#14"/><use xlink:href="#7" y="4.342"/></svg><svg x="2750"><use xlink:href="#a"/><use xlink:href="#14"/><use xlink:href="#10" y="4.342"/></svg><svg x="2860"><use xlink:href="#a"/><use xlink:href="#15"/><use xlink:href="#7" y="4.342"/></svg><svg x="2970"><use xlink:href="#a"/><use xlink:href="#15"/><use xlink:href="#10" y="4.342"/></svg><svg x="3080"><use xlink:href="#a"/><use xlink:href="#b" x="-.004" y="8.659"/><use xlink:href="#2"/><use xlink:href="#3" y="2.171"/><use xlink:href="#4" y="4.342"/><use xlink:href="#5" y="6.513"/></svg><svg x="3190"><use xlink:href="#a"/><use xlink:href="#b" x="2.996" y="8.659"/><use xlink:href="#2"/><use xlink:href="#3" y="2.171"/><use xlink:href="#4" y="4.342"/><use xlink:href="#5" y="6.513"/><use xlink:href="#1" y="8.684"/></svg><svg x="3300"><use xlink:href="#a"/><use xlink:href="#b" x="-.004" y="10.83"/><use xlink:href="#2"/><use xlink:href="#3" y="2.171"/><use xlink:href="#4" y="4.342"/><use xlink:href="#5" y="6.513"/><use xlink:href="#16" y="8.684"/></svg><svg x="3410"><use xlink:href="#a"/><use xlink:href="#b" x="-.004" y="13.001"/><use xlink:href="#2"/><use xlink:href="#3" y="2.171"/><use xlink:href="#4" y="4.342"/><use xlink:href="#5" y="6.513"/><use xlink:href="#16" y="8.684"/><use xlink:href="#17" y="10.855"/></svg><svg x="3520"><use xlink:href="#a"/><use xlink:href="#b" x="2.996" y="13.001"/><use xlink:href="#2"/><use xlink:href="#3" y="2.171"/><use xlink:href="#4" y="4.342"/><use xlink:href="#5" y="6.513"/><use xlink:href="#16" y="8.684"/><use xlink:href="#17" y="10.855"/><use xlink:href="#1" y="13.026"/></svg><svg x="3630"><use xlink:href="#a"/><use xlink:href="#b" x="-.004" y="15.172"/><use xlink:href="#2"/><use xlink:href="#3" y="2.171"/><use xlink:href="#4" y="4.342"/><use xlink:href="#5" y="6.513"/><use xlink:href="#16" y="8.684"/><use xlink:href="#17" y="10.855"/><use xlink:href="#18" y="13.026"/></svg><svg x="3740"><use xlink:href="#a"/><use xlink:href="#b" x="2.996" y="15.172"/><use xlink:href="#2"/><use xlink:href="#3" y="2.171"/><use xlink:href="#4" y="4.342"/><use xlink:href="#5" y="6.513"/><use xlink:href="#16" y="8.684"/><use xlink:href="#17" y="10.855"/><use xlink:href="#18" y="13.026"/><use xlink:href="#1" y="15.197"/></svg><svg x="3850"><use xlink:href="#a"/><use xlink:href="#b" x="-.004" y="17.343"/><use xlink:href="#2"/><use xlink:href="#3" y="2.171"/><use xlink:href="#4" y="4.342"/><use xlink:href="#5" y="6.513"/><use xlink:href="#16" y="8.684"/><use xlink:href="#17" y="10.855"/><use xlink:href="#18" y="13.026"/><use xlink:href="#16" y="15.197"/></svg><svg x="3960"><use xlink:href="#a"/><use xlink:href="#b" x="-.004" y="19.514"/><use xlink:href="#2"/><use xlink:href="#3" y="2.171"/><use xlink:href="#4" y="4.342"/><use xlink:href="#5" y="6.513"/><use xlink:href="#16" y="8.684"/><use xlink:href="#17" y="10.855"/><use xlink:href="#18" y="13.026"/><use xlink:href="#16" y="15.197"/><use xlink:href="#19" y="17.368"/></svg><svg x="4070"><use xlink:href="#a"/><use xlink:href="#b" x="2.996" y="19.514"/><use xlink:href="#2"/><use xlink:href="#3" y="2.171"/><use xlink:href="#4" y="4.342"/><use xlink:href="#5" y="6.513"/><use xlink:href="#16" y="8.684"/><use xlink:href="#17" y="10.855"/><use xlink:href="#18" y="13.026"/><use xlink:href="#16" y="15.197"/><use xlink:href="#19" y="17.368"/><use xlink:href="#1" y="19.539"/></svg><svg x="4180"><use xlink:href="#a"/><use xlink:href="#b" x="-.004" y="21.685"/><use xlink:href="#2"/><use xlink:href="#3" y="2.171"/><use xlink:href="#4" y="4.342"/><use xlink:href="#5" y="6.513"/><use xlink:href="#16" y="8.684"/><use xlink:href="#17" y="10.855"/><use xlink:href="#18" y="13.026"/><use xlink:href="#16" y="15.197"/><use xlink:href="#19" y="17.368"/><use xlink:href="#20" y="19.539"/></svg><svg x="4290"><use xlink:href="#a"/><use xlink:href="#b" x="2.996" y="21.685"/><use xlink:href="#2"/><use xlink:href="#3" y="2.171"/><use xlink:href="#4" y="4.342"/><use xlink:href="#5" y="6.513"/><use xlink:href="#16" y="8.684"/><use xlink:href="#17" y="10.855"/><use xlink:href="#18" y="13.026"/><use xlink:href="#16" y="15.197"/><use xlink:href="#19" y="17.368"/><use xlink:href="#20" y="19.539"/><use xlink:href="#1" y="21.71"/></svg><svg x="4400"><use xlink:href="#a"/><use xlink:href="#b" x="-.004" y="23.856"/><use xlink:href="#2"/><use xlink:href="#3" y="2.171"/><use xlink:href="#4" y="4.342"/><use xlink:href="#5" y="6.513"/><use xlink:href="#16" y="8.684"/><use xlink:href="#17" y="10.855"/><use xlink:href="#18" y="13.026"/><use xlink:href="#16" y="15.197"/><use xlink:href="#19" y="17.368"/><use xlink:href="#20" y="19.539"/><use xlink:href="#21" y="21.71"/></svg><svg x="4510"><use xlink:href="#a"/><use xlink:href="#b" x="28.996" y="45.566"/><use xlink:href="#2"/><use xlink:href="#3" y="2.171"/><use xlink:href="#4" y="4.342"/><use xlink:href="#5" y="6.513"/><use xlink:href="#16" y="8.684"/><use xlink:href="#17" y="10.855"/><use xlink:href="#18" y="13.026"/><use xlink:href="#16" y="15.197"/><use xlink:href="#19" y="17.368"/><use xlink:href="#20" y="19.539"/><use xlink:href="#21" y="21.71"/><use xlink:href="#22" y="23.881"/><use xlink:href="#23" y="28.223"/><use xlink:href="#24" y="32.565"/><use xlink:href="#25" y="34.736"/><use xlink:href="#26" y="36.907"/><use xlink:href="#27" y="41.249"/><use xlink:href="#28" y="43.42"/><text y="47.261" class="f">Delete</text><text x="7.014" y="47.261" class="f">this</text><text x="12.024" y="47.261" class="f">worktree?</text><text x="22.044" y="47.261" class="f">[y/N]:</text></svg><svg x="4620"><use xlink:href="#a"/><use xlink:href="#b" x="-.004" y="47.737"/><use xlink:href="#2"/><use xlink:href="#3" y="2.171"/><use xlink:href="#4" y="4.342"/><use xlink:href="#5" y="6.513"/><use xlink:href="#16" y="8.684"/><use xlink:href="#17" y="10.855"/><use xlink:href="#18" y="13.026"/><use xlink:href="#16" y="15.197"/><use xlink:href="#19" y="17.368"/><use xlink:href="#20" y="19.539"/><use xlink:href="#21" y="21.71"/><use xlink:href="#22" y="23.881"/><use xlink:href="#23" y="28.223"/><use xlink:href="#24" y="32.565"/><use xlink:href="#25" y="34.736"/><use xlink:href="#26" y="36.907"/><use xlink:href="#27" y="41.249"/><use xlink:href="#28" y="43.42"/><use xlink:href="#29" y="45.591"/></svg><svg x="4730"><use xlink:href="#a"/><use xlink:href="#b" x="-.004" y="52.079"/><use xlink:href="#2"/><use xlink:href="#3" y="2.171"/><use xlink:href="#4" y="4.342"/><use xlink:href="#5" y="6.513"/><use xlink:href="#16" y="8.684"/><use xlink:href="#17" y="10.855"/><use xlink:href="#18" y="13.026"/><use xlink:href="#16" y="15.197"/><use xlink:href="#19" y="17.368"/><use xlink:href="#20" y="19.539"/><use xlink:href="#21" y="21.71"/><use xlink:href="#22" y="23.881"/><use xlink:href="#23" y="28.223"/><use xlink:href="#24" y="32.565"/><use xlink:href="#25" y="34.736"/><use xlink:href="#26" y="36.907"/><use xlink:href="#27" y="41.249"/><use xlink:href="#28" y="43.42"/><use xlink:href="#29" y="45.591"/><use xlink:href="#30" y="47.762"/><use xlink:href="#31" y="49.933"/></svg><svg x="4840"><use xlink:href="#a"/><use xlink:href="#b" x="2.996" y="52.079"/><use xlink:href="#2"/><use xlink:href="#3" y="2.171"/><use xlink:href="#4" y="4.342"/><use xlink:href="#5" y="6.513"/><use xlink:href="#16" y="8.684"/><use xlink:href="#17" y="10.855"/><use xlink:href="#18" y="13.026"/><use xlink:href="#16" y="15.197"/><use xlink:href="#19" y="17.368"/><use xlink:href="#20" y="19.539"/><use xlink:href="#21" y="21.71"/><use xlink:href="#22" y="23.881"/><use xlink:href="#23" y="28.223"/><use xlink:href="#24" y="32.565"/><use xlink:href="#25" y="34.736"/><use xlink:href="#26" y="36.907"/><use xlink:href="#27" y="41.249"/><use xlink:href="#28" y="43.42"/><use xlink:href="#29" y="45.591"/><use xlink:href="#30" y="47.762"/><use xlink:href="#31" y="49.933"/><use xlink:href="#1" y="52.104"/></svg><svg x="4950"><use xlink:href="#a"/><use xlink:href="#b" x="-.004" y="54.25"/><use xlink:href="#2"/><use xlink:href="#3" y="2.171"/><use xlink:href="#4" y="4.342"/><use xlink:href="#5" y="6.513"/><use xlink:href="#16" y="8.684"/><use xlink:href="#17" y="10.855"/><use xlink:href="#18" y="13.026"/><use xlink:href="#16" y="15.197"/><use xlink:href="#19" y="17.368"/><use xlink:href="#20" y="19.539"/><use xlink:href="#21" y="21.71"/><use xlink:href="#22" y="23.881"/><use xlink:href="#23" y="28.223"/><use xlink:href="#24" y="32.565"/><use xlink:href="#25" y="34.736"/><use xlink:href="#26" y="36.907"/><use xlink:href="#27" y="41.249"/><use xlink:href="#28" y="43.42"/><use xlink:href="#29" y="45.591"/><use xlink:href="#30" y="47.762"/><use xlink:href="#31" y="49.933"/><use xlink:href="#32" y="52.104"/></svg><svg x="5060"><use xlink:href="#a"/><use xlink:href="#b" x="-.004" y="56.421"/><use xlink:href="#2"/><use xlink:href="#3" y="2.171"/><use xlink:href="#4" y="4.342"/><use xlink:href="#5" y="6.513"/><use xlink:href="#16" y="8.684"/><use xlink:href="#17" y="10.855"/><use xlink:href="#18" y="13.026"/><use xlink:href="#16" y="15.197"/><use xlink:href="#19" y="17.368"/><use xlink:href="#20" y="19.539"/><use xlink:href="#21" y="21.71"/><use xlink:href="#22" y="23.881"/><use xlink:href="#23" y="28.223"/><use xlink:href="#24" y="32.565"/><use xlink:href="#25" y="34.736"/><use xlink:href="#26" y="36.907"/><use xlink:href="#27" y="41.249"/><use xlink:href="#28" y="43.42"/><use xlink:href="#29" y="45.591"/><use xlink:href="#30" y="47.762"/><use xlink:href="#31" y="49.933"/><use xlink:href="#32" y="52.104"/><text y="55.945" class="f">exit</text></svg></svg></g></g></svg></svg>